<?xml version="1.0" encoding="UTF-8"?>
<!DOCTYPE svg PUBLIC "-//W3C//DTD SVG 1.1//EN" "http://www.w3.org/Graphics/SVG/1.1/DTD/svg11.dtd">
<!-- Creator: CorelDRAW 2020 (64 Bit) -->
<svg xmlns="http://www.w3.org/2000/svg" xml:space="preserve" width="13.5466mm" height="3.6406mm" version="1.1" style="shape-rendering:geometricPrecision; text-rendering:geometricPrecision; image-rendering:optimizeQuality; fill-rule:evenodd; clip-rule:evenodd"
viewBox="0 0 1354.66 364.06"
 xmlns:xlink="http://www.w3.org/1999/xlink"
 xmlns:xodm="http://www.corel.com/coreldraw/odm/2003">
 <defs>
  <style type="text/css">
   <![CDATA[
    .fil2 {fill:#32BB46}
    .fil1 {fill:#4AC95A}
    .fil3 {fill:#606F75}
    .fil0 {fill:#FCFBFC}
   ]]>
  </style>
 </defs>
 <g id="Camada_x0020_1">
  <metadata id="CorelCorpID_0Corel-Layer"/>
  <g id="_2072041855152">
   <g>
    <path class="fil0" d="M0.79 341.04c10.61,-2.48 21.58,-5.58 32.18,-8.41 3.15,-0.84 47.79,-12.73 48.91,-12.67 0.65,0.03 11.94,5.61 14.06,6.49 33.19,13.66 70.84,15.96 104.62,5.19 10.67,-3.4 19.83,-7.33 28.81,-12.26 7.24,-3.96 18.1,-11.21 24.35,-16.71l15.67 -15.11c1.49,-1.92 3.21,-3.62 4.75,-5.52 6.08,-7.48 11.26,-15.3 16.46,-24.6 9.22,-16.48 17.12,-41.18 18.01,-64.06 1.61,-41 -10.75,-77.57 -35.84,-107.21 -31.02,-36.65 -78.3,-58.34 -129.6,-54.15 -23.39,1.91 -46.12,9.38 -62.86,19.18 -4.49,2.62 -8.39,5.06 -12.55,7.97 -7.43,5.21 -10.39,7.78 -17.02,13.78 -8.21,7.42 -17.43,18.32 -23.5,27.83 -9.22,14.45 -14.2,24.71 -19.42,42.15 -10.15,33.89 -6.76,71.88 7.25,104.21 2.15,4.96 4.59,9.1 6.92,13.63 0.79,1.54 -0.93,5.81 -1.48,7.77l-11.03 40.29c-1.5,5.39 -2.93,10.76 -4.41,16.12l-4.28 16.09z"/>
    <path class="fil1" d="M31.84 153.87l1.79 -3.38c0.17,-0.78 0.09,-0.88 0.36,-1.38 0.64,0.89 1.38,1.23 2.86,1.28 0,0.14 -0.01,0.64 0.02,0.74 0.44,1.56 -0.03,0.41 0.54,1.12l38.64 0c0.08,7.26 0.17,5.04 1.68,5.92l0.38 0.36c-0.5,-8.26 -1.39,-12.87 1.49,-21.86 1.98,-6.16 5.52,-11.61 8.98,-15.31 5.32,-5.71 6.55,-7.31 16.95,-7.25 9.02,0.06 9.5,1.89 13.43,11.1l10.6 25.79c1.74,5.44 -5.17,12.41 -7.93,15.86 -4.93,6.17 -9.01,4.66 4.83,22.7 10.62,13.85 24.41,24.9 41.01,31.78 2.65,1.1 6.24,3.59 9.34,1.63 1.67,-1.05 9.65,-11.01 11.37,-13.21 6.02,-7.67 3.96,-8.84 23.51,0.65 5.59,2.71 10.75,5.28 16.29,7.97 3.85,1.88 5.18,2.05 5.18,7.03 -0.01,4.52 -1.03,7.21 -1.63,11.2 0.06,-0.08 0.14,-0.32 0.17,-0.27 0.32,0.59 1.78,-6.75 2.08,-7.38 0.63,-1.3 0.15,-0.25 0.47,-1.96 0.6,-3.24 0.61,0.26 0.55,-6.71l1.52 0c0.01,1.25 -0.28,0.93 0.33,1.25l0 -2.49c2.23,-0.02 1.22,-0.99 3.13,-0.47 1.24,0.33 -0.34,0.5 3.54,0.47 2.64,-0.02 5.29,0 7.93,0l0 2.49 2.2 0 0 -2.49 20.21 0 -0.02 2.49c1.79,-0.05 0.43,-0.14 1.28,-0.4 0.45,-0.15 1.01,-0.41 1.61,-0.05 1.35,0.8 -0.21,1.2 -0.08,2.99 0.87,-0.78 0.8,-1.39 1.21,-2.93 5.21,-19.42 6.68,-33.47 3.92,-54.51 -1.15,-8.78 -3.7,-18.17 -6.54,-25.81 -28.02,-75.19 -118.34,-107.8 -188.77,-62.83 -12.24,7.82 -25.13,19.72 -33.51,31.49 -5.65,7.95 -7.77,11.4 -12.19,20.17 -2.79,5.54 -7.66,17.45 -8.73,24.21z"/>
    <path class="fil2" d="M31.84 153.87c-3.57,11.84 -4.64,29.32 -3.37,42.84 3.53,37.73 21.7,59.03 21.81,61.04 0.09,1.73 -11.8,41.33 -12.64,46.76 2.48,-0.34 14.52,-3.69 17.97,-4.6l26.62 -6.98c4.9,-1.32 3.85,-0.69 7.75,1.54 4.97,2.83 9.59,5.27 15.03,7.67 22.08,9.75 50.41,13.21 77.01,7.6 20.41,-4.31 37.37,-13.07 53.09,-25.35 9.67,-7.56 20.58,-19.45 26.95,-29.68 2.92,-4.7 5.64,-9 8.11,-14.28 1.28,-2.73 6.37,-13.69 6.28,-16.35 -0.13,-1.79 1.43,-2.19 0.08,-2.99 -0.6,-0.36 -1.16,-0.1 -1.61,0.05 -0.85,0.26 0.51,0.35 -1.28,0.4l0.02 -2.49 -20.21 0 0 2.49 -2.2 0 0 -2.49c-2.64,0 -5.29,-0.02 -7.93,0 -3.88,0.03 -2.3,-0.14 -3.54,-0.47 -1.91,-0.52 -0.9,0.45 -3.13,0.47l0 2.49c-0.61,-0.32 -0.32,0 -0.33,-1.25l-1.52 0c0.06,6.97 0.05,3.47 -0.55,6.71 -0.32,1.71 0.16,0.66 -0.47,1.96 -0.3,0.63 -1.76,7.97 -2.08,7.38 -0.03,-0.05 -0.11,0.19 -0.17,0.27 -0.53,0.83 -0.82,3.26 -2.51,5.92 -5.4,8.52 -17.23,14.7 -27.44,15.78 -13.58,1.43 -29.94,-4.76 -41.96,-9.53 -23.84,-9.45 -42.21,-26.24 -57.53,-45.74 -9.45,-12.05 -21.49,-29.17 -23.98,-44.51l-0.38 -0.36c-1.51,-0.88 -1.6,1.34 -1.68,-5.92l-38.64 0c-0.57,-0.71 -0.1,0.44 -0.54,-1.12 -0.03,-0.1 -0.02,-0.6 -0.02,-0.74 -1.48,-0.05 -2.22,-0.39 -2.86,-1.28 -0.27,0.5 -0.19,0.6 -0.36,1.38l-1.79 3.38z"/>
    <path class="fil0" d="M78.11 158.53c2.49,15.34 14.53,32.46 23.98,44.51 15.32,19.5 33.69,36.29 57.53,45.74 12.02,4.77 28.38,10.96 41.96,9.53 10.21,-1.08 22.04,-7.26 27.44,-15.78 1.69,-2.66 1.98,-5.09 2.51,-5.92 0.6,-3.99 1.62,-6.68 1.63,-11.2 0,-4.98 -1.33,-5.15 -5.18,-7.03 -5.54,-2.69 -10.7,-5.26 -16.29,-7.97 -19.55,-9.49 -17.49,-8.32 -23.51,-0.65 -1.72,2.2 -9.7,12.16 -11.37,13.21 -3.1,1.96 -6.69,-0.53 -9.34,-1.63 -16.6,-6.88 -30.39,-17.93 -41.01,-31.78 -13.84,-18.04 -9.76,-16.53 -4.83,-22.7 2.76,-3.45 9.67,-10.42 7.93,-15.86l-10.6 -25.79c-3.93,-9.21 -4.41,-11.04 -13.43,-11.1 -10.4,-0.06 -11.63,1.54 -16.95,7.25 -3.46,3.7 -7,9.15 -8.98,15.31 -2.88,8.99 -1.99,13.6 -1.49,21.86z"/>
   </g>
   <path class="fil3" d="M402.55 262.74l33.26 0.01c1.4,-2.86 11.11,-44.66 12.74,-51.43 1.63,-6.78 11.38,-49.31 12.91,-51.71 1.22,1.99 5.61,21.46 6.61,25.45 2.27,9.12 18.04,74.88 19.48,77.68l32.69 0 40.78 -151.74 -32.62 -0.12 -24.72 104.49c-1.57,-1.79 -6.39,-23.85 -6.91,-25.96 -5.98,-24.38 -14.68,-55.59 -19.35,-78.42l-31.07 -0.11 -26.44 103.37c-2.23,-2.77 -22.61,-99.53 -24.56,-103.25l-32.99 -0.12c2.62,12.34 6.65,25.49 9.84,37.77l20.11 76.23c1.22,4.82 9.16,35.86 10.24,37.86zm868.45 -96.18l-0.02 -13.75 -28.58 -0.02 -0.02 148.45 30.06 0.01 0.02 -51.81c1.26,0.26 1.38,1.01 2.21,2.1 0.73,0.97 1.52,1.69 2.27,2.44 13.91,14.05 37.31,14.64 51.67,5.84 18.38,-11.28 25.86,-31.1 25.21,-53.08 -0.75,-25.18 -10.22,-42.13 -26.38,-51.4 -8.65,-4.96 -21.98,-6.98 -33.18,-4.5 -17.62,3.9 -20.38,14.53 -23.26,15.72zm-119.99 0.06l-0.01 -13.81 -28.54 -0.01 -0.07 148.43 30.11 0.03 0.01 -51.86c1.24,0.41 1.33,1.11 2.2,2.15 5.42,6.47 12.25,10.97 21.11,12.87 33.42,7.18 59.07,-18.94 58.02,-57.68 -0.69,-25.1 -10.24,-42.22 -26.37,-51.38 -15.77,-8.94 -42.57,-7.83 -54.07,8.57 -1.02,1.46 -0.86,2.12 -2.39,2.69zm-180.9 96.12l29.69 0.03c4.76,0.06 3.61,-0.4 5.06,-4.65 1.43,-4.16 9.08,-27.24 10.5,-29.11l56.19 -0.08c1.12,1.78 9.05,26.04 10.29,29.87 1.72,5.28 -0.52,3.94 15.68,3.94 6.18,0.01 14.04,0.43 20.01,-0.09l-56.37 -151.74 -34 -0.03c-1.98,3.07 -57,150.9 -57.05,151.86zm-283.07 -76.16l29.88 0.02c1.42,-4.11 0.72,-8.68 6.47,-13.04 6.73,-5.1 24.81,-4.82 30.06,1.39 2.66,3.16 4.47,10.38 1.98,15.04 -8.3,15.57 -74.29,-3.19 -71.74,45.1 0.66,12.55 6.58,20.44 14.05,24.84 12.87,7.59 34.42,6.94 48.08,0.73 6.63,-3.01 7.45,-4.99 11.71,-8.11 1.38,2.57 1.16,7.23 2.58,10.17l30.14 0.02c-7.31,-12.07 -1.27,-75.9 -4.46,-89.44 -6.17,-26.22 -50.14,-26.29 -69.24,-20.74 -16.11,4.68 -28.5,14.78 -29.51,34.02zm-119.17 76.07l29.87 0.09c0.75,-3.55 0.24,-47.58 0.23,-55.04 -0.02,-18.08 2.46,-33.03 21.19,-34 21.47,-1.12 21.42,15.48 21.42,34 -0.01,8.5 -0.52,50.34 0.14,54.95l29.73 0.09c0.68,-5.42 0.24,-55.27 0.22,-64.96 -0.07,-23.56 -4.22,-39.56 -23.22,-45.75 -15.72,-5.12 -35.06,-1.74 -45.42,11.13 -1.26,1.57 -2.19,3.98 -4.07,4.9l0.02 -57.21 -30.11 0.1 0 151.7zm329.39 -35.57l-28.57 -0.06c2.22,46.73 66.84,43.36 86.69,29.78 7.96,-5.45 15.02,-14.89 14.75,-29.75 -0.51,-28.17 -32.93,-29.1 -54.01,-34.88 -5.74,-1.57 -12.14,-3.8 -14.01,-8.15 -5.89,-13.71 15.56,-16.66 27.22,-12.14 6.5,2.53 7.93,5.4 9.35,12.86l28.34 0.15c0.15,-12.95 -8.76,-23.49 -16.26,-27.81 -10.42,-6.02 -23.54,-7.88 -37.4,-7.1 -13.69,0.78 -25.59,4.52 -33.14,11.36 -6.52,5.92 -12.41,21.52 -7.12,33.74 8.91,20.6 43.03,18.02 61.1,27.66 10.27,5.48 7.76,20.63 -10.59,22.59 -14.29,1.54 -25.66,-4.97 -26.35,-18.25zm-84.57 -74.37l-18.2 0.13 -0.01 19.97 18.04 0.18c1.21,6.51 -1.22,59.68 0.68,71.12 3.79,22.74 33.18,21.01 51.42,18.67l0.19 -23.34c-22.56,2.77 -22.01,-0.72 -22.01,-21.35 0,-15.04 -0.02,-30.08 0,-45.12l21.7 0c0.86,-2.9 0.33,-16.2 0.29,-20.14l-21.92 -0.06 -0.08 -32.95 -30.05 -0.01 -0.05 32.9zm480.15 20.24c-16.7,2.94 -22.62,20.28 -21.24,39.61 1.3,18.36 10.42,32.85 30.44,30.09 17.23,-2.37 22.92,-20.35 21.52,-39.66 -1.25,-17.44 -11.13,-33.48 -30.72,-30.04zm-120.25 0.08c-16.59,2.86 -22.46,20.79 -20.94,39.99 1.44,18.07 10.74,32.73 30.84,29.57 16.77,-2.64 22.75,-20.68 21.07,-39.79 -1.56,-17.83 -11.09,-33.21 -30.97,-29.77zm-416.06 45.53l-0.02 -9.41c-14.09,7.67 -34.23,3.15 -40.92,14.7 -2.57,4.43 -2.56,10.59 -0.07,14.99 4.93,8.73 29.84,11.08 38.1,-4.36 2.45,-4.58 2.88,-10.09 2.91,-15.92zm267.33 -14.66l39.07 0.14c-1.08,-4.6 -7.44,-21.92 -9.43,-27.87 -1.52,-4.53 -3.03,-9.17 -4.68,-13.73l-3.6 -10.57c-0.19,-0.58 -0.36,-1.23 -0.59,-1.77l-0.32 -0.67c-0.34,-0.64 -0.4,-0.66 -0.62,-0.93l-19.83 55.4z"/>
  </g>
 </g>
</svg>
