<?xml version="1.0" encoding="UTF-8"?>
<!DOCTYPE svg PUBLIC "-//W3C//DTD SVG 1.1//EN" "http://www.w3.org/Graphics/SVG/1.1/DTD/svg11.dtd">
<!-- Creator: CorelDRAW 2020 (64 Bit) -->
<svg xmlns="http://www.w3.org/2000/svg" xml:space="preserve" width="3.1327mm" height="3.048mm" version="1.1" style="shape-rendering:geometricPrecision; text-rendering:geometricPrecision; image-rendering:optimizeQuality; fill-rule:evenodd; clip-rule:evenodd"
viewBox="0 0 305 296.76"
 xmlns:xlink="http://www.w3.org/1999/xlink"
 xmlns:xodm="http://www.corel.com/coreldraw/odm/2003">
 <defs>
  <style type="text/css">
   <![CDATA[
    .fil0 {fill:#FEFEFE}
    .fil1 {fill:#2FB846}
    .fil2 {fill:#FDFDFD}
   ]]>
  </style>
 </defs>
 <g id="Camada_x0020_1">
  <metadata id="CorelCorpID_0Corel-Layer"/>
  <g id="_2904035169856">
   <path class="fil0" d="M29.33 234.9c-41.29,-56.25 -39.09,-130.19 7.37,-182.95 71.76,-81.5 205.98,-64.29 253.14,31.88 34.16,69.66 7.61,146.23 -49.52,185.77 -49.61,34.32 -110.25,35.5 -162.85,7.04l-55.35 13.24 7.2 -54.97z"/>
   <path class="fil1" d="M48.47 261.43c6.63,-1.2 17.57,-5.52 24.55,-7.99 15.17,-5.4 24.37,18.12 75.31,19.8 94.21,3.1 162.59,-92.57 120.04,-179.35 -13.78,-28.1 -39.27,-51.13 -69.44,-62.39 -17.05,-6.36 -36.52,-9.78 -56.67,-8.03 -41.03,3.57 -69.58,23.3 -87.52,43.67 -19.65,22.32 -35.72,57.64 -29.64,98.14 7.19,47.85 30.39,57.04 28.66,68.12 -1.45,9.34 -4.48,18.58 -5.3,28.03z"/>
   <path class="fil2" d="M92.53 76.24c-6.8,1.97 -16.71,14.36 -19.04,22.38 -2.71,9.29 0.76,26.49 4.25,34.92 7.64,18.44 25.31,36.35 36.47,47.5 13.29,13.27 29.24,23.7 52.73,31.61 9.97,3.37 24.09,7.68 35.72,5.57 15.88,-2.89 30.74,-15.14 29.91,-32.3 -0.32,-6.6 -5.39,-7.2 -11.22,-9.99 -5.28,-2.54 -23.95,-13.21 -29.71,-11.21 -7.18,2.49 -12.78,20.52 -22.51,18.54 -6.25,-1.29 -23.58,-11.27 -27.85,-14.45 -7.46,-5.57 -14.51,-14.03 -20.56,-21.5 -13.02,-16.06 -7.15,-13.66 2.03,-25.8 6.91,-9.14 -1.46,-20.45 -5.47,-29.94 -1.81,-4.29 -3.89,-11.18 -7.24,-13.73 -3.59,-2.72 -13.08,-2.9 -17.52,-1.62z"/>
  </g>
 </g>
</svg>
