<?xml version="1.0" encoding="UTF-8"?>
<!DOCTYPE svg PUBLIC "-//W3C//DTD SVG 1.1//EN" "http://www.w3.org/Graphics/SVG/1.1/DTD/svg11.dtd">
<!-- Creator: CorelDRAW 2020 (64 Bit) -->
<svg xmlns="http://www.w3.org/2000/svg" xml:space="preserve" width="19px" height="19px" version="1.1" style="shape-rendering:geometricPrecision; text-rendering:geometricPrecision; image-rendering:optimizeQuality; fill-rule:evenodd; clip-rule:evenodd"
viewBox="0 0 18.05 18.05"
 xmlns:xlink="http://www.w3.org/1999/xlink"
 xmlns:xodm="http://www.corel.com/coreldraw/odm/2003">
 <defs>
  <style type="text/css">
   <![CDATA[
    .fil0 {fill:#FEFEFE}
   ]]>
  </style>
 </defs>
 <g id="Camada_x0020_1">
  <metadata id="CorelCorpID_0Corel-Layer"/>
  <path class="fil0" d="M9.02 0c4.99,0 9.03,4.04 9.03,9.02 0,4.99 -4.04,9.03 -9.03,9.03 -4.98,0 -9.02,-4.04 -9.02,-9.03 0,-4.98 4.04,-9.02 9.02,-9.02zm-6.75 5.43l2.99 0c0.44,-1.3 1.11,-2.59 2.03,-3.88 -2.33,0.51 -4.05,2.01 -5.02,3.88zm4.5 0l4.29 0c-0.45,-1.31 -1.17,-2.55 -2.15,-3.63 -0.97,1.08 -1.69,2.32 -2.14,3.63zm5.8 0l3 0c-0.98,-1.87 -2.7,-3.37 -5.02,-3.88 0.91,1.29 1.59,2.58 2.02,3.88zm3.58 1.44l-3.2 0c0.27,1.37 0.27,2.74 0.01,4.11l3.32 0c0.33,-1.35 0.27,-2.78 -0.13,-4.11zm-4.71 0l-5.05 0c-0.26,1.35 -0.26,2.75 0.01,4.11l5.03 0c0.27,-1.36 0.27,-2.76 0.01,-4.11zm-6.56 0l-3.2 0c-0.4,1.33 -0.45,2.76 -0.13,4.11l3.32 0c-0.26,-1.37 -0.26,-2.74 0.01,-4.11zm10.91 5.51l-3.19 0c-0.43,1.34 -1.12,2.68 -2.05,4.03 2.66,-0.68 4.37,-2.2 5.24,-4.03zm-4.73 0l-4.29 0c0.45,1.32 1.16,2.58 2.14,3.69 0.98,-1.11 1.7,-2.37 2.15,-3.69zm-5.83 0l-3.18 0c0.87,1.83 2.57,3.35 5.24,4.03 -0.94,-1.35 -1.62,-2.69 -2.06,-4.03z"/>
 </g>
</svg>
